0
SECTION
2
HEADER
9
$INSUNITS
70
4
9
$ACADVER
1
AC1014
9
$HANDSEED
5
FFFF
0
ENDSEC
0
SECTION
2
TABLES
0
TABLE
2
VPORT
5
8
100
AcDbSymbolTable
0
ENDTAB
0
TABLE
2
LTYPE
5
5
100
AcDbSymbolTable
0
LTYPE
5
14
100
AcDbSymbolTableRecord
100
AcDbLinetypeTableRecord
2
BYBLOCK
70
0
0
LTYPE
5
15
100
AcDbSymbolTableRecord
100
AcDbLinetypeTableRecord
2
BYLAYER
70
0
0
ENDTAB
0
TABLE
2
LAYER
5
2
100
AcDbSymbolTable
70
2
0
LAYER
5
50
100
AcDbSymbolTableRecord
100
AcDbLayerTableRecord
2
0
70
0
6
CONTINUOUS
0
ENDTAB
0
TABLE
2
STYLE
5
3
100
AcDbSymbolTable
70
1
0
STYLE
5
11
100
AcDbSymbolTableRecord
100
AcDbTextStyleTableRecord
2
STANDARD
70
0
0
ENDTAB
0
TABLE
2
VIEW
5
6
100
AcDbSymbolTable
70
0
0
ENDTAB
0
TABLE
2
UCS
5
7
100
AcDbSymbolTable
70
0
0
ENDTAB
0
TABLE
2
APPID
5
9
100
AcDbSymbolTable
70
2
0
APPID
5
12
100
AcDbSymbolTableRecord
100
AcDbRegAppTableRecord
2
ACAD
70
0
0
ENDTAB
0
TABLE
2
DIMSTYLE
5
A
100
AcDbSymbolTable
70
1
0
ENDTAB
0
TABLE
2
BLOCK_RECORD
5
1
100
AcDbSymbolTable
70
1
0
BLOCK_RECORD
5
1F
100
AcDbSymbolTableRecord
100
AcDbBlockTableRecord
2
*MODEL_SPACE
0
BLOCK_RECORD
5
1B
100
AcDbSymbolTableRecord
100
AcDbBlockTableRecord
2
*PAPER_SPACE
0
ENDTAB
0
ENDSEC
0
SECTION
2
BLOCKS
0
BLOCK
5
20
100
AcDbEntity
100
AcDbBlockBegin
2
*MODEL_SPACE
0
ENDBLK
5
21
100
AcDbEntity
100
AcDbBlockEnd
0
BLOCK
5
1C
100
AcDbEntity
100
AcDbBlockBegin
2
*PAPER_SPACE
0
ENDBLK
5
1D
100
AcDbEntity
100
AcDbBlockEnd
0
ENDSEC
0
SECTION
2
ENTITIES
0
LWPOLYLINE
5
100
100
AcDbEntity
8
0
100
AcDbPolyline
90
4
70
1
43
0.0
10
-5.986547435515166
20
-19.176844171522056
42
-0.99999999999999989
10
-12.807576898831968
20
-25.996290225211904
10
-25.996929641994875
20
-12.80387504150143
42
-1.0000000074505804
10
-19.175900229486913
20
-5.9844289369909509
0
ARC
5
101
100
AcDbEntity
8
0
100
AcDbCircle
10
9.3970621671735355
20
22.586567198366978
30
0
40
4.8226364008346634
210
0
220
-0
230
1
100
AcDbArc
50
44.993349008372817
51
224.99334815459912
0
LINE
5
102
100
AcDbEntity
8
0
100
AcDbLine
10
12.807576898831927
20
25.996290225211919
30
0
11
25.996929743612498
21
12.803874939860176
31
0
0
ARC
5
103
100
AcDbEntity
8
0
100
AcDbCircle
10
22.586414961145273
20
9.3941519638358812
30
0
40
4.8226364008346581
210
0
220
0
230
1
100
AcDbArc
50
-135.00665099162728
51
44.993348154599033
0
LINE
5
104
100
AcDbEntity
8
0
100
AcDbLine
10
19.175900229486878
20
5.9844289369909509
30
0
11
5.9865473847063111
21
19.176844222342673
31
0
0
CIRCLE
5
105
100
AcDbEntity
8
0
100
AcDbCircle
10
22.759415386875009
20
-22.756463487330514
30
0
40
1.8999999999999995
210
0
220
0
230
1
0
CIRCLE
5
106
100
AcDbEntity
8
0
100
AcDbCircle
10
3.7858058801720631
20
30.875731488791661
30
0
40
1.5500000000000003
210
0
220
0
230
1
0
CIRCLE
5
107
100
AcDbEntity
8
0
100
AcDbCircle
10
-22.759415386875048
20
22.75646348733051
30
0
40
1.8999999999999995
210
0
220
0
230
1
0
CIRCLE
5
108
100
AcDbEntity
8
0
100
AcDbCircle
10
44.798352042405881
20
-10.136107617911268
30
0
40
1.5500000000000025
210
0
220
0
230
1
0
ARC
5
109
100
AcDbEntity
8
0
100
AcDbCircle
10
-9.3970621671735675
20
22.586567198366986
30
0
40
4.8226364008346563
210
0
220
0
230
1
100
AcDbArc
50
-44.993349008372675
51
135.006651845401
0
LINE
5
110
100
AcDbEntity
8
0
100
AcDbLine
10
-5.9865474355151722
20
19.17684417152206
30
0
11
-19.175900280295739
21
5.9844288861703276
31
0
0
ARC
5
111
100
AcDbEntity
8
0
100
AcDbCircle
10
-22.586414961145309
20
9.3941519638358812
30
0
40
4.8226364008346589
210
0
220
0
230
1
100
AcDbArc
50
135.00665099162742
51
315.00665013785374
0
LINE
5
112
100
AcDbEntity
8
0
100
AcDbLine
10
-25.996929692803707
20
12.803874990680804
30
0
11
-12.807576949640795
21
25.99629017439128
31
0
0
CIRCLE
5
113
100
AcDbEntity
8
0
100
AcDbCircle
10
-30.862072870200983
20
-3.7721479359327152
30
0
40
1.5500000000000025
210
0
220
0
230
1
0
CIRCLE
5
114
100
AcDbEntity
8
0
100
AcDbCircle
10
22.759415386875013
20
22.75646348733051
30
0
40
1.8999999999999995
210
0
220
0
230
1
0
CIRCLE
5
115
100
AcDbEntity
8
0
100
AcDbCircle
10
10.150119427090479
20
-44.784340233225322
30
0
40
1.5500000000000003
210
0
220
0
230
1
0
CIRCLE
5
116
100
AcDbEntity
8
0
100
AcDbCircle
10
-0.10328023624084523
20
0.11658633859062691
30
0
40
14.225000000000001
210
0
220
0
230
1
0
ARC
5
117
100
AcDbEntity
8
0
100
AcDbCircle
10
9.3970621671735408
20
-22.586567198366978
30
0
40
4.8226364008346598
210
0
220
0
230
1
100
AcDbArc
50
135.00665099162748
51
315.0066509916274
0
LINE
5
118
100
AcDbEntity
8
0
100
AcDbLine
10
5.9865474355151349
20
-19.17684417152206
30
0
11
19.175900229486885
21
-5.9844289369909465
31
0
0
ARC
5
119
100
AcDbEntity
8
0
100
AcDbCircle
10
22.58641496114528
20
-9.3941519638358706
30
0
40
4.8226364008346536
210
0
220
0
230
1
100
AcDbArc
50
-44.993349008372675
51
135.00665099162734
0
LINE
5
120
100
AcDbEntity
8
0
100
AcDbLine
10
25.996929692803672
20
-12.803874990680795
30
0
11
12.807576898831945
21
-25.996290225211901
31
0
0
CIRCLE
5
121
100
AcDbEntity
8
0
100
AcDbCircle
10
-22.759415386875034
20
-22.756463487330514
30
0
40
1.8999999999999995
210
0
220
0
230
1
0
LWPOLYLINE
5
122
100
AcDbEntity
8
0
100
AcDbPolyline
90
36
70
1
43
0.0
10
23.284271255887035
20
28.283980986661
42
-0.41421356237309553
10
28.284561451721068
20
23.284271199338736
10
28.284967046266445
20
16.296183732305689
42
0.19889728309742957
10
31.799685651815565
20
7.8115988482811227
10
47.650163924578592
20
-8.0388794244814576
10
48.183627712947448
20
-8.7731604705416988
10
48.473540036637274
20
-9.6669420501054795
10
48.473540710989234
20
-10.605981252771983
10
48.183625689899017
20
-11.499762832337176
10
47.650157855426905
20
-12.234051970589652
10
12.247357398585258
20
-47.63685242743329
10
11.513068934683869
20
-48.170319587553614
10
10.619286006419212
20
-48.460235957339954
10
9.6802488268028171
20
-48.460233259941603
10
8.7864658985407313
20
-48.170322284950132
10
8.0521855268313782
20
-47.636857822228833
10
-7.7863796240864778
20
-31.7982926713109
42
0.19892745174896437
10
-16.272357488539207
20
-28.283574065761883
10
-23.284271255883745
20
-28.283981043206015
42
-0.41421356237309426
10
-28.284561451717785
20
-23.284271255883752
10
-28.284968590951117
20
-16.269569982921592
42
0.19889728309742635
10
-31.799687196500088
20
-7.7849850988971836
10
-47.856719002269244
20
8.2720467068720627
10
-48.3901888597834
20
9.0063324733743535
10
-48.680102532173642
20
9.900118099034021
10
-48.680102532174132
20
10.839152581255265
10
-48.390192393641655
20
11.732927311497034
10
-47.856719002267099
20
12.467223973419813
10
-12.453918545425671
20
47.87002443026195
10
-11.719632104569168
20
48.403494962130146
10
-10.825847827607262
20
48.693407285821422
10
-9.8868113207457498
20
48.693409308617028
10
-8.9930270453752534
20
48.403494287780468
10
-8.2587406045202449
20
47.870025104615763
10
7.8129903408215942
20
31.798294159274391
42
0.19892745174896023
10
16.298968205274178
20
28.28357555372552
0
ENDSEC
0
SECTION
2
OBJECTS
0
DICTIONARY
5
C
100
AcDbDictionary
3
ACAD_GROUP
350
D
3
ACAD_MLINESTYLE
350
17
0
DICTIONARY
5
D
100
AcDbDictionary
0
DICTIONARY
5
1A
330
C
100
AcDbDictionary
0
DICTIONARY
5
17
100
AcDbDictionary
0
ENDSEC
0
EOF
